# xmcd
#
# Track frame offsets:
#	150
#	18033
#	33403
#	48361
#	65688
#	82500
#	100386
#	115966
#	133978
#	151560
#	165554
#	182493
#	201539
#	216127
#
# Disc length: 3130 seconds
#
# Revision: 0
# Processed by: cddbd v1.5.2PL0 Copyright (c) Steve Scherf et al.
# Submitted via: audiograbber 1.83.01
#
DISCID=b30c380e
DTITLE=Love Band - Love Hit
DYEAR=1900
DGENRE=
TTITLE0=In september Morn
TTITLE1=Mandy
TTITLE2=Just The Way You Are
TTITLE3=Can You Feel The Love Tonight
TTITLE4=If You Leave Me Now 
TTITLE5=Careless Whispers
TTITLE6=The Song And Winding Read
TTITLE7=Up Where We Belong
TTITLE8=We Have All The Time In The World
TTITLE9=Without You
TTITLE10=Woman In Love
TTITLE11=That's What Friends Are For
TTITLE12=Feelings
TTITLE13=Swing Harmony
EXTD=
EXTT0=
EXTT1=
EXTT2=
EXTT3=
EXTT4=
EXTT5=
EXTT6=
EXTT7=
EXTT8=
EXTT9=
EXTT10=
EXTT11=
EXTT12=
EXTT13=
PLAYORDER=
